HIERARCHY
ROOT SpineBase
{
  OFFSET 0.000000 0.000000 0.000000
  CHANNELS 6 Xposition Yposition Zposition Zrotation Xrotation Yrotation
  JOINT SpineMid
  {
    OFFSET 0.000000 32.450248 0.000000
    CHANNELS 3 Zrotation Xrotation Yrotation
    JOINT SpineShoulder
    {
      OFFSET -0.072917 24.549930 -0.966908
      CHANNELS 3 Zrotation Xrotation Yrotation
      JOINT Neck
      {
        OFFSET -0.078044 8.072256 -0.612059
        CHANNELS 3 Zrotation Xrotation Yrotation
        JOINT Head
        {
          OFFSET -3.921547 10.409447 4.953177
          CHANNELS 3 Zrotation Xrotation Yrotation
          End Site
          {
            OFFSET 0 0 0
          }
        }
      }
      JOINT ShoulderLeft
      {
        OFFSET -0.249678 -7.717187 -16.288275
        CHANNELS 3 Zrotation Xrotation Yrotation
        JOINT ElbowLeft
        {
          OFFSET -5.424515 -20.525186 -4.463483
          CHANNELS 3 Zrotation Xrotation Yrotation
          JOINT WristLeft
          {
            OFFSET -7.981221 -14.079489 10.008161
            CHANNELS 3 Zrotation Xrotation Yrotation
            JOINT HandLeft
            {
              OFFSET -1.562277 -0.163348 4.454479
              CHANNELS 3 Zrotation Xrotation Yrotation
              JOINT HandTipLeft
              {
                OFFSET -2.247945 -0.797971 2.928031
                CHANNELS 3 Zrotation Xrotation Yrotation
                End Site
                {
                  OFFSET 0 0 0
                }
              }
              JOINT ThumbLeft
              {
                OFFSET 2.949119 -0.180873 -2.923437
                CHANNELS 3 Zrotation Xrotation Yrotation
                End Site
                {
                  OFFSET 0 0 0
                }
              }
            }
          }
        }
      }
      JOINT ShoulderRight
      {
        OFFSET 13.239169 2.051323 0.314154
        CHANNELS 3 Zrotation Xrotation Yrotation
        JOINT ElbowRight
        {
          OFFSET -12.297992 -19.751521 -13.355808
          CHANNELS 3 Zrotation Xrotation Yrotation
          JOINT WristRight
          {
            OFFSET -14.765985 -20.751820 2.414265
            CHANNELS 3 Zrotation Xrotation Yrotation
            JOINT HandRight
            {
              OFFSET -0.150600 -3.750433 2.610243
              CHANNELS 3 Zrotation Xrotation Yrotation
              JOINT HandTipRight
              {
                OFFSET -1.672907 -2.489017 3.469912
                CHANNELS 3 Zrotation Xrotation Yrotation
                End Site
                {
                  OFFSET 0 0 0
                }
              }
              JOINT ThumbRight
              {
                OFFSET -3.016086 1.149694 -0.115079
                CHANNELS 3 Zrotation Xrotation Yrotation
                End Site
                {
                  OFFSET 0 0 0
                }
              }
            }
          }
        }
      }
    }
  }
  JOINT HipLeft
  {
    OFFSET -2.663140 0.296246 1.506756
    CHANNELS 3 Zrotation Xrotation Yrotation
    JOINT KneeLeft
    {
      OFFSET 16.117520 -34.032277 9.557370
      CHANNELS 3 Zrotation Xrotation Yrotation
      JOINT AnkleLeft
      {
        OFFSET -8.143503 -32.642819 -18.128279
        CHANNELS 3 Zrotation Xrotation Yrotation
        JOINT FootLeft
        {
          OFFSET 6.688172 -2.020374 5.178972
          CHANNELS 3 Zrotation Xrotation Yrotation
          End Site
          {
            OFFSET 0 0 0
          }
        }
      }
    }
  }
  JOINT HipRight
  {
    OFFSET 2.647195 1.872504 -9.632920
    CHANNELS 3 Zrotation Xrotation Yrotation
    JOINT KneeRight
    {
      OFFSET -3.128595 -34.556816 3.552748
      CHANNELS 3 Zrotation Xrotation Yrotation
      JOINT AnkleRight
      {
        OFFSET 14.863430 -28.477858 18.292993
        CHANNELS 3 Zrotation Xrotation Yrotation
        JOINT FootRight
        {
          OFFSET -6.002705 -5.393336 -11.135993
          CHANNELS 3 Zrotation Xrotation Yrotation
          End Site
          {
            OFFSET 0 0 0
          }
        }
      }
    }
  }
}
MOTION
Frames: 16
Frame Time: 0.033333
-2.830145 71.414648 336.693547 -0.000000 0.000000 64.512645 0.000000 -0.000000 -64.512645 -0.000000 0.000000 0.000000 -0.000000 0.000000 0.000000 0.000000 0.000000 0.000000 -0.000000 0.000000 0.000000 -0.000000 0.000000 0.000000 -0.000000 0.000000 0.000000 -0.000000 0.000000 0.000000 0.000000 0.000000 0.000000 0.000000 0.000000 0.000000 -0.000000 0.000000 0.000000 -0.000000 0.000000 0.000000 -0.000000 0.000000 0.000000 -0.000000 0.000000 0.000000 0.000000 0.000000 0.000000 0.000000 0.000000 0.000000 0.000000 -0.000000 -64.512645 -0.000000 0.000000 0.000000 -0.000000 0.000000 0.000000 0.000000 0.000000 0.000000 0.000000 -0.000000 -64.512645 -0.000000 0.000000 0.000000 -0.000000 0.000000 0.000000 0.000000 0.000000 0.000000
-3.182056 71.298943 336.819275 -0.190426 -0.189191 63.690460 0.253994 -0.086847 -63.690582 -0.000000 0.000000 0.000000 1.883130 0.706241 -0.635873 0.000000 0.000000 0.000000 -0.329448 -0.968395 0.325148 0.334985 0.966494 -0.330757 -0.488885 -2.298207 5.438380 9.809954 10.727439 0.396863 0.000000 0.000000 0.000000 0.000000 0.000000 0.000000 -0.000000 0.000000 0.000000 -0.000000 0.000000 0.000000 -3.659175 4.739283 -2.659251 3.887182 -4.554281 2.965356 0.000000 0.000000 0.000000 0.000000 0.000000 0.000000 0.253994 -0.086847 -63.690582 -0.000000 0.000000 0.000000 1.261602 -1.299558 -0.988974 0.000000 0.000000 0.000000 0.253994 -0.086847 -63.690582 -0.000000 0.000000 0.000000 0.714668 1.259216 -2.839730 0.000000 0.000000 0.000000
-3.481383 71.175881 336.903891 -0.307441 -0.351228 62.730494 0.453054 -0.112350 -62.730992 -0.000000 0.000000 0.000000 3.770061 1.563413 -1.233657 0.000000 0.000000 0.000000 -0.510526 -1.868554 0.597983 0.530276 1.863047 -0.614931 -0.611875 -3.689387 9.613898 19.464017 19.144015 0.140240 0.000000 0.000000 0.000000 0.000000 0.000000 0.000000 -0.000000 0.000000 0.000000 -0.000000 0.000000 0.000000 -6.123754 8.900008 -4.372608 6.855153 -8.351567 5.350726 0.000000 0.000000 0.000000 0.000000 0.000000 0.000000 0.781432 -1.184381 -62.512906 -1.102578 0.203450 -0.212412 2.300761 -2.405907 -1.801847 0.000000 0.000000 0.000000 0.453054 -0.112350 -62.730992 -0.000000 0.000000 0.000000 1.316945 2.288007 -5.142651 0.000000 0.000000 0.000000
-3.728125 71.045461 336.947395 -0.352168 -0.486766 61.632538 0.595635 -0.078610 -61.633625 -0.619851 -0.648434 -0.056755 6.266136 3.227868 -1.806493 0.000000 0.000000 0.000000 0.051944 -2.086982 0.892875 0.834844 3.504310 -1.170581 -0.741222 -5.332733 13.538590 27.767934 24.706386 -1.199955 0.000000 0.000000 0.000000 0.000000 0.000000 0.000000 1.113473 -0.097650 0.179695 -0.491891 0.748202 -0.129122 -7.505070 12.304071 -5.296657 8.777059 -11.438432 6.987503 0.000000 0.000000 0.000000 0.000000 0.000000 0.000000 1.000722 -1.605205 -61.372961 -1.534080 0.375733 -0.249681 3.122220 -3.305276 -2.447022 0.000000 0.000000 0.000000 0.595635 -0.078610 -61.633625 0.313328 -0.956891 -0.293561 1.451932 4.073408 -6.648921 0.000000 0.000000 0.000000
-3.922284 70.907683 336.949787 -0.325420 -0.596346 60.395018 0.679254 0.011659 -60.396781 -0.602389 -0.810647 -0.057746 8.100689 4.561270 -2.367410 0.000000 0.000000 0.000000 0.082371 -2.786054 1.110743 0.951874 4.664415 -1.491258 -0.690188 -6.138712 17.110801 34.129107 27.453284 -3.279950 0.000000 0.000000 0.000000 0.000000 0.000000 0.000000 0.999613 -0.056156 0.320239 -1.444938 0.706609 -0.259039 -6.899458 15.086031 -5.562589 9.629621 -13.906027 7.806869 0.000000 0.000000 0.000000 0.000000 0.000000 0.000000 1.101365 -1.917310 -60.140033 -1.037449 0.318079 -0.650290 2.909207 -3.695928 -2.544094 0.000000 0.000000 0.000000 0.679254 0.011659 -60.396781 0.381898 -1.176345 -0.361738 1.692953 4.931052 -7.854075 0.000000 0.000000 0.000000
-4.063858 70.762548 336.911066 -0.227714 -0.680397 59.015229 0.700538 0.155045 -59.017529 -0.472101 -0.945704 -0.048807 9.781946 6.024509 -2.899978 0.000000 0.000000 0.000000 0.099124 -3.530721 1.307606 1.004519 5.861692 -1.791876 -0.583849 -6.685748 20.788620 38.403694 27.809903 -5.720405 0.000000 0.000000 0.000000 0.000000 0.000000 0.000000 0.642265 0.021457 0.503194 -1.490464 0.847758 -0.532188 -6.276729 16.872766 -5.267158 8.655641 -17.187114 7.114701 0.000000 0.000000 0.000000 0.000000 0.000000 0.000000 1.078924 -2.127201 -58.811845 -1.146072 0.651506 -0.704302 3.165001 -4.218577 -2.768229 0.000000 0.000000 0.000000 0.700538 0.155045 -59.017529 0.433127 -1.346738 -0.415660 1.794338 5.569467 -8.571490 0.000000 0.000000 0.000000
-4.078480 70.555409 336.776525 -0.059179 -0.697522 56.718169 0.615598 0.333290 -56.720320 -0.248020 -1.020480 -0.030861 12.286483 7.805459 -3.829020 0.000000 0.000000 0.000000 0.181329 -4.024483 1.386570 0.868764 6.735666 -1.965254 -0.109538 -4.815214 25.340423 37.702669 23.656019 -6.926375 0.000000 0.000000 0.000000 0.000000 0.000000 0.000000 0.151270 0.044747 0.703850 -1.409391 0.983357 -0.820157 -5.736808 17.850054 -4.978078 6.790221 -21.266652 5.783038 0.000000 0.000000 0.000000 0.000000 0.000000 0.000000 1.153282 -2.266169 -56.483704 -1.481226 0.613318 -0.676390 3.476183 -4.261510 -2.724187 0.000000 0.000000 0.000000 0.615598 0.333290 -56.720320 1.397461 -3.845910 -1.034487 -0.872877 7.698832 -4.274817 0.000000 0.000000 0.000000
-3.933263 70.342723 336.543696 0.323824 -0.608470 54.413953 0.306395 0.617430 -54.413884 0.172870 -1.017924 0.004798 14.622933 8.798103 -5.002343 0.000000 0.000000 0.000000 0.432151 -4.491968 1.358321 0.355110 7.368284 -1.921152 0.226412 -2.074987 29.858142 33.467432 17.011646 -9.520873 0.000000 0.000000 0.000000 0.000000 0.000000 0.000000 -0.852125 0.177084 0.989478 -1.022034 1.043335 -1.289362 -4.230900 17.788379 -4.017587 5.744127 -21.106321 5.351286 0.000000 0.000000 0.000000 0.000000 0.000000 0.000000 0.464573 -2.226104 -54.458540 -1.192805 1.111868 -0.522113 3.133421 -3.829011 -1.859821 0.000000 0.000000 0.000000 -0.746672 1.297224 -54.474330 2.355497 -2.835411 -0.840277 -0.099200 8.993622 -7.274453 0.000000 0.000000 0.000000
-4.003516 70.217388 336.391944 0.471923 -0.723292 52.968477 0.076002 -0.102267 -52.944783 -0.073380 -0.471989 0.009482 16.020391 11.796491 -5.293160 0.000000 0.000000 0.000000 0.287817 -5.585497 1.649712 0.370881 8.854243 -2.271313 0.222183 -2.172465 33.634794 31.705426 13.569206 -12.817385 0.000000 0.000000 0.000000 0.000000 0.000000 0.000000 -0.896712 -0.996400 1.611638 -0.906717 2.414939 -1.881518 -3.265721 19.187220 -3.279927 3.225145 -23.288332 3.028298 0.000000 0.000000 0.000000 0.000000 0.000000 0.000000 0.008614 -2.279001 -53.310722 -0.578039 1.730179 -0.552443 4.292373 -6.558422 -4.845663 0.000000 0.000000 0.000000 -0.888188 1.586190 -53.036225 1.328447 0.478676 0.087826 2.313205 5.435368 -10.145714 0.000000 0.000000 0.000000
-4.141270 70.267161 336.187905 0.645006 -0.816754 53.326626 0.324590 -0.311753 -53.284056 -0.008624 -0.459634 0.033964 15.100389 14.394887 -4.522794 0.000000 0.000000 0.000000 0.374864 -7.203313 1.963217 0.394161 11.370624 -2.803501 -0.113474 -7.011370 38.439915 35.539186 13.939466 -17.825792 0.000000 0.000000 0.000000 0.000000 0.000000 0.000000 -3.701429 0.748252 2.019560 -0.098998 1.446951 -3.006952 0.580133 21.429710 -1.018916 0.420196 -26.458727 1.495940 0.000000 0.000000 0.000000 0.000000 0.000000 0.000000 -0.700951 -2.326146 -54.048240 -0.226861 3.396162 -0.555824 3.468101 -6.394701 -3.136138 0.000000 0.000000 0.000000 -1.122417 1.387949 -53.331977 -1.014554 5.516338 1.228027 5.933906 -3.244652 -10.397489 0.000000 0.000000 0.000000
-4.440906 70.556326 336.040887 0.856011 -0.604889 55.050391 0.437363 -0.653351 -54.984592 0.063691 -0.527510 0.062863 11.782026 14.168155 -3.107131 0.000000 0.000000 0.000000 0.254060 -8.592156 2.230177 0.353553 13.097970 -3.110845 -0.061451 -7.632009 43.967055 35.422557 10.734081 -22.453070 0.000000 0.000000 0.000000 0.000000 0.000000 0.000000 -6.826244 2.577294 2.552991 0.842974 -0.097555 -3.910044 7.114019 20.170935 2.646504 -6.832669 -26.019479 -3.434609 0.000000 0.000000 0.000000 0.000000 0.000000 0.000000 -1.408432 -1.735430 -55.934101 -0.439528 6.302400 -0.659797 -0.135309 -6.572901 -5.672166 0.000000 0.000000 0.000000 -1.439556 0.639619 -54.947081 -4.451686 11.866234 3.026879 11.034813 -13.423932 -12.522378 0.000000 0.000000 0.000000
-4.619861 70.250172 336.354895 1.413493 -0.901752 51.994053 0.707193 -0.552396 -51.901135 0.049767 -0.342535 0.085709 7.255846 17.174931 -0.096648 0.000000 0.000000 0.000000 -0.195443 -9.233880 2.315928 0.299380 13.472036 -3.075721 1.171384 -13.575401 52.175189 43.521738 9.880263 -34.329441 0.000000 0.000000 0.000000 0.000000 0.000000 0.000000 -11.691943 5.572945 3.633059 3.544200 -2.271515 -5.540307 15.799532 12.450032 9.037664 -13.349352 -16.739348 -6.697352 0.000000 0.000000 0.000000 0.000000 0.000000 0.000000 -2.114221 -1.982723 -53.289827 -1.781328 10.633694 -0.377350 -0.867227 -6.510941 0.579181 0.000000 0.000000 0.000000 -0.160041 1.668936 -51.980598 -8.435798 17.145278 5.617686 18.405650 -25.287589 -17.233328 0.000000 0.000000 0.000000
-4.885733 69.231561 336.764540 1.823160 -0.856070 43.130754 0.775641 -0.402598 -43.021366 0.046371 -0.329640 0.100727 2.970445 18.471213 2.586376 0.000000 0.000000 0.000000 -0.694172 -8.631600 2.107563 0.289039 12.676882 -2.860592 1.991048 -14.322347 57.123303 53.899546 7.238512 -41.877451 0.000000 0.000000 0.000000 0.000000 0.000000 0.000000 -13.460087 6.161575 4.180347 3.758251 -3.421006 -5.842396 22.828771 4.306163 13.468793 -15.035434 -5.709458 -6.050968 0.000000 0.000000 0.000000 0.000000 0.000000 0.000000 -2.838848 -3.478571 -45.023659 -1.761183 13.020117 -0.390172 -7.606676 -0.973256 10.548153 0.000000 0.000000 0.000000 0.036359 8.141495 -44.020365 -5.577525 17.228588 9.442064 23.095386 -35.863950 -25.721570 0.000000 0.000000 0.000000
-5.019259 68.083732 337.930216 2.225680 -1.287330 30.174338 0.690629 -0.038158 -30.053113 -0.015228 -0.290681 0.100243 0.000252 20.956841 4.983017 0.000000 0.000000 0.000000 -0.893925 -7.035258 1.738002 -0.086881 11.034661 -2.448637 1.901337 -11.144979 57.708371 63.542939 4.611134 -45.622708 0.000000 0.000000 0.000000 0.000000 0.000000 0.000000 -13.751242 5.860558 4.666446 2.939000 -4.536751 -5.360205 25.432166 -4.604139 14.057256 -9.771843 5.926971 -1.259054 0.000000 0.000000 0.000000 0.000000 0.000000 0.000000 -1.894369 -4.275973 -32.130122 -0.752396 12.187281 -1.021549 -22.832726 8.635306 28.489679 0.000000 0.000000 0.000000 -1.228744 11.505275 -31.339957 -7.834114 20.363603 12.801886 29.318013 -44.555096 -30.998950 0.000000 0.000000 0.000000
-4.967960 66.900755 339.527663 2.732363 -1.732639 14.148405 0.404163 0.533993 -14.013065 -0.127807 -0.232893 0.096593 -1.233235 21.528716 5.888536 0.000000 0.000000 0.000000 -1.064897 -4.817322 1.142452 -0.904257 7.954932 -1.745907 1.236715 -2.973623 53.737450 64.320597 5.855608 -39.801220 0.000000 0.000000 0.000000 0.000000 0.000000 0.000000 -10.205048 2.627599 4.078748 -0.874429 -3.878034 -3.343264 22.325424 -11.522968 9.940196 0.258154 15.970176 4.960097 0.000000 0.000000 0.000000 0.000000 0.000000 0.000000 -2.154886 -3.195327 -16.161806 4.838755 7.690950 -2.720787 -50.123233 13.007663 64.596285 0.000000 0.000000 0.000000 -3.852826 12.293932 -15.109715 -13.332783 25.375143 15.898452 36.365520 -46.334898 -35.723115 0.000000 0.000000 0.000000
-4.750940 65.863755 341.284675 2.922166 -2.311520 -1.027298 -0.132918 1.000519 1.170784 -0.182821 -0.093122 0.082830 1.892271 22.251699 4.282900 0.000000 0.000000 0.000000 -1.759066 -3.998087 1.121520 -0.699945 7.123182 -2.183849 1.080964 3.720516 49.717865 92.337968 -15.723814 -76.836017 0.000000 0.000000 0.000000 0.000000 0.000000 0.000000 -2.577475 -3.825987 3.175536 -7.812913 -0.837722 0.512057 15.872767 -13.715249 2.953508 9.546606 22.026586 9.965850 0.000000 0.000000 0.000000 0.000000 0.000000 0.000000 -4.184408 -0.817324 -0.639522 13.817289 -2.434647 -4.106629 -76.412237 7.597635 92.939097 0.000000 0.000000 0.000000 -5.124592 11.005551 0.389397 -21.709532 30.566808 17.553749 43.012198 -48.343845 -27.328328 0.000000 0.000000 0.000000
